<svg width="627" height="627" viewBox="0 0 627 627" fill="none" xmlns="http://www.w3.org/2000/svg">
<g clip-path="url(#clip0_3587_5337)">
<path d="M321.738 328.161L304.558 325.298C285.365 322.1 266.069 330.379 255.161 346.492C233.99 377.767 254 420.303 291.593 423.933L323.381 427.003C339.488 428.558 355.627 424.382 368.958 415.208L449.037 360.101C465.18 348.992 487.271 353.073 498.38 369.216C514.415 392.517 549.935 388.605 560.514 362.372L574.411 327.911C581.368 310.659 579.21 291.068 568.665 275.744L536.464 228.951C513.209 195.158 466.963 186.615 433.17 209.87L430.772 211.52C413.268 223.565 402.36 243.063 401.253 264.282C399.128 305.04 361.997 334.87 321.738 328.161Z" fill="#9EFF00"/>
<path d="M301.895 297.022L318.794 301.234C337.674 305.939 357.565 299.211 369.712 284.011C393.29 254.507 376.704 210.523 339.516 203.932L308.07 198.359C292.137 195.535 275.718 198.423 261.704 206.514L177.518 255.119C160.548 264.916 138.849 259.102 129.051 242.132C114.908 217.636 79.1898 218.728 66.5703 244.043L49.9928 277.297C41.6936 293.945 42.2962 313.645 51.5972 329.755L79.9982 378.947C100.509 414.473 145.935 426.645 181.46 406.134L183.982 404.678C202.382 394.055 214.798 375.48 217.579 354.415C222.919 313.952 262.292 287.151 301.895 297.022Z" fill="white"/>
</g>
<defs>
<clipPath id="clip0_3587_5337">
<rect width="627" height="627" fill="white"/>
</clipPath>
</defs>
</svg>
