<svg width="705" height="333" viewBox="0 0 705 333" fill="none" xmlns="http://www.w3.org/2000/svg">
<g clip-path="url(#clip0_3808_6193)">
<path d="M361.586 180.152L342.278 176.935C320.708 173.34 299.021 182.645 286.763 200.753C262.97 235.902 285.459 283.706 327.707 287.786L363.432 291.235C381.534 292.983 399.672 288.29 414.653 277.98L504.651 216.048C522.793 203.564 547.62 208.15 560.104 226.292C578.125 252.479 618.045 248.082 629.934 218.6L645.552 179.871C653.37 160.483 650.945 138.465 639.094 121.243L602.905 68.6549C576.77 30.6768 524.796 21.0759 486.818 47.2107L484.123 49.0655C464.452 62.6023 452.192 84.5152 450.949 108.362C448.56 154.168 406.83 187.692 361.586 180.152Z" fill="#9EFF00"/>
<path d="M339.285 145.156L358.278 149.89C379.496 155.178 401.85 147.617 415.502 130.534C441.999 97.3763 423.359 47.9446 381.566 40.5379L346.225 34.2747C328.318 31.1013 309.866 34.3467 294.117 43.4396L199.505 98.0637C180.433 109.075 156.046 102.54 145.035 83.4685C129.14 55.9384 88.9983 57.166 74.8158 85.616L56.1853 122.989C46.8583 141.699 47.5354 163.839 57.9883 181.944L89.9068 237.228C112.958 277.154 164.01 290.833 203.935 267.782L206.768 266.146C227.448 254.207 241.402 233.332 244.526 209.658C250.529 164.184 294.778 134.064 339.285 145.156Z" fill="white"/>
</g>
<defs>
<clipPath id="clip0_3808_6193">
<rect width="705" height="333" fill="white"/>
</clipPath>
</defs>
</svg>
