<svg width="14" height="15" viewBox="0 0 14 15" fill="none" xmlns="http://www.w3.org/2000/svg">
<path d="M4.80664 4.8656C4.20343 4.8656 3.70901 5.33977 3.70898 5.91931V11.1879C3.70898 11.7674 4.20341 12.2416 4.80664 12.2416H9.19336C9.79654 12.2415 10.29 11.7674 10.29 11.1879V5.91931C10.29 5.3398 9.79652 4.86565 9.19336 4.8656H4.80664ZM8.01562 6.59705C8.20261 6.59713 8.35449 6.7489 8.35449 6.93591V10.097C8.35423 10.2838 8.20245 10.4358 8.01562 10.4359C7.8288 10.4358 7.67702 10.2838 7.67676 10.097V6.93591C7.67676 6.7489 7.82863 6.59713 8.01562 6.59705ZM5.9834 6.59705C6.17039 6.59714 6.32227 6.7489 6.32227 6.93591V10.097C6.322 10.2838 6.17022 10.4358 5.9834 10.4359C5.7965 10.4359 5.6448 10.2839 5.64453 10.097V6.93591C5.64453 6.74885 5.79633 6.59705 5.9834 6.59705Z" fill="white"/>
<path d="M5.08301 3.38893H3.71396C3.41277 3.38893 3.16634 3.63893 3.16634 3.94448C3.16634 4.25004 3.41277 4.50004 3.71396 4.50004H10.2854C10.5866 4.50004 10.833 4.25004 10.833 3.94448C10.833 3.63893 10.5866 3.38893 10.2854 3.38893H8.91634L8.52753 2.99449C8.42896 2.89449 8.28658 2.83337 8.1442 2.83337H5.85515C5.71277 2.83337 5.57039 2.89449 5.47182 2.99449L5.08301 3.38893Z" fill="white"/>
</svg>
