<svg width="16" height="19" viewBox="0 0 16 19" fill="none" xmlns="http://www.w3.org/2000/svg">
<path d="M0.208008 17.0826L0.208008 10.8624C0.208008 10.5324 0.372189 10.216 0.664433 9.9827C0.956677 9.7494 1.35305 9.61833 1.76634 9.61833C2.17964 9.61833 2.576 9.7494 2.86825 9.9827C3.16049 10.216 3.32467 10.5324 3.32467 10.8624L3.32467 17.0826C3.32467 17.4126 3.16049 17.729 2.86825 17.9623C2.576 18.1956 2.17964 18.3267 1.76634 18.3267C1.35305 18.3267 0.956677 18.1956 0.664433 17.9623C0.372189 17.729 0.208008 17.4126 0.208008 17.0826ZM12.6747 8.37428V2.15404C12.6747 1.8241 12.8389 1.50767 13.1311 1.27437C13.4233 1.04106 13.8197 0.909994 14.233 0.909994C14.6463 0.909994 15.0427 1.04106 15.3349 1.27437C15.6272 1.50767 15.7913 1.8241 15.7913 2.15404V8.37428C15.7913 8.70422 15.6272 9.02065 15.3349 9.25395C15.0427 9.48726 14.6463 9.61833 14.233 9.61833C13.8197 9.61833 13.4233 9.48726 13.1311 9.25395C12.8389 9.02065 12.6747 8.70422 12.6747 8.37428ZM6.44134 17.0826L6.44134 2.15404C6.44134 1.8241 6.60552 1.50767 6.89777 1.27437C7.19001 1.04106 7.58638 0.909994 7.99967 0.909994C8.41297 0.909994 8.80934 1.04106 9.10158 1.27437C9.39383 1.50767 9.55801 1.8241 9.55801 2.15404V17.0826C9.55801 17.4126 9.39383 17.729 9.10158 17.9623C8.80934 18.1956 8.41297 18.3267 7.99967 18.3267C7.58638 18.3267 7.19001 18.1956 6.89777 17.9623C6.60552 17.729 6.44134 17.4126 6.44134 17.0826Z" fill="#202020"/>
</svg>
