<svg width="36" height="37" viewBox="0 0 36 37" fill="none" xmlns="http://www.w3.org/2000/svg">
<g clip-path="url(#clip0_1375_10013)">
<path d="M4.5 6.82666H6.75V9.07666H4.5V6.82666ZM4.5 11.3267H6.75V13.5767H4.5V11.3267ZM20.25 6.82666H22.5V9.07666H20.25V6.82666ZM33.0996 22.5767H27.6504L30.375 19.8696L33.0996 22.5767ZM24.75 16.9517C24.75 16.647 24.8613 16.3833 25.084 16.1606C25.3066 15.938 25.5703 15.8267 25.875 15.8267C26.1797 15.8267 26.4434 15.938 26.666 16.1606C26.8887 16.3833 27 16.647 27 16.9517C27 17.2563 26.8887 17.52 26.666 17.7427C26.4434 17.9653 26.1797 18.0767 25.875 18.0767C25.5703 18.0767 25.3066 17.9653 25.084 17.7427C24.8613 17.52 24.75 17.2563 24.75 16.9517ZM36 11.3267V27.0767H33.75V13.5767H11.25V23.2271L16.875 17.6196L24.75 25.4771L27 23.2271V26.4263L26.3496 27.0767H23.1504L16.875 20.7837L11.25 26.4263V29.3267H22.5V31.5767H9V20.3267H0V0.0766602H27V11.3267H36ZM24.75 11.3267V2.32666H22.5V4.57666H20.25V2.32666H6.75V4.57666H4.5V2.32666H2.25V18.0767H4.5V15.8267H6.75V18.0767H9V11.3267H24.75ZM31.5 29.3267H36V31.5767H31.5V36.0767H29.25V31.5767H24.75V29.3267H29.25V24.8267H31.5V29.3267Z" fill="white"/>
</g>
<defs>
<clipPath id="clip0_1375_10013">
<rect width="36" height="36" fill="white" transform="translate(0 0.0766602)"/>
</clipPath>
</defs>
</svg>
