<svg width="23" height="24" viewBox="0 0 23 24" fill="none" xmlns="http://www.w3.org/2000/svg">
<path d="M20.3619 9.34603C21.3604 9.90625 21.2859 11.9188 20.1954 13.8413C19.1049 15.7637 17.4113 16.868 16.4128 16.3078C15.4142 15.7476 15.4888 13.735 16.5793 11.8125C17.6698 9.89011 19.3633 8.78581 20.3619 9.34603Z" fill="#D9D9D9"/>
<path d="M18.2462 22.0975C14.4898 25.1223 12.3256 22.7573 9.83379 19.6967C4.6049 16.0513 7.06842 12.7488 9.2227 11.0142C11.377 9.27954 12.4918 11.4166 17.6351 13.415C17.6351 13.415 27.035 15.0205 18.2462 22.0975Z" fill="#C5C2C2"/>
<path d="M21.3423 16.3591C22.0563 17.1612 21.0133 19.2394 19.0125 21.0009C17.0118 22.7623 14.811 23.54 14.0969 22.7378C13.3829 21.9357 14.426 19.8575 16.4267 18.096C18.4274 16.3346 20.6282 15.5569 21.3423 16.3591Z" fill="#7A7A7A"/>
<path d="M20.4401 12.0046C20.2962 12.2754 19.6494 12.2162 18.9953 11.8724C18.3412 11.5286 17.9275 11.0305 18.0714 10.7597C18.2153 10.489 18.8621 10.5482 19.5162 10.892C20.1703 11.2357 20.584 11.7339 20.4401 12.0046Z" fill="#7A7A7A"/>
<path d="M7.01949 14.6519C7.95702 14.6348 8.51098 16.3283 8.54842 18.358C8.58586 20.3878 7.95694 23.1604 7.01941 23.1775C6.08188 23.1946 5.42718 20.3879 5.38974 18.3582C5.3523 16.3284 6.08196 14.669 7.01949 14.6519Z" fill="#D9D9D9"/>
<path fill-rule="evenodd" clip-rule="evenodd" d="M12.0462 13.0642C11.8896 12.9005 11.6224 12.9164 11.4865 13.0975C11.3828 13.2359 11.3908 13.4276 11.5056 13.5569L12.2008 14.3397C12.3374 14.4936 12.5018 14.6208 12.6854 14.7147L13.9788 15.3767C14.1325 15.4553 14.3208 15.412 14.4241 15.2742C14.5579 15.0959 14.4935 14.8403 14.291 14.7457L13.3454 14.3041C13.2098 14.2408 13.0873 14.1529 12.984 14.045L12.0462 13.0642Z" fill="#4C4C4C"/>
<path d="M17.4288 7.37947C17.6635 10.8601 13.9545 13.9418 9.14461 14.2625C4.3347 14.5833 0.245245 12.0217 0.0105515 8.54104C-0.224142 5.06038 3.4848 1.97873 8.29471 1.65797C13.1046 1.33722 17.1941 3.89882 17.4288 7.37947Z" fill="#D9D9D9"/>
<path d="M6.03839 7.49489C6.03839 7.88869 5.71738 8.20792 5.3214 8.20792C4.92541 8.20792 4.60441 7.88869 4.60441 7.49489C4.60441 7.10109 4.92541 6.78185 5.3214 6.78185C5.71738 6.78185 6.03839 7.10109 6.03839 7.49489Z" fill="#202020"/>
<path d="M12.4915 6.78171C12.4915 7.17551 12.1704 7.49475 11.7745 7.49475C11.3785 7.49475 11.0575 7.17551 11.0575 6.78171C11.0575 6.38791 11.3785 6.06867 11.7745 6.06867C12.1704 6.06867 12.4915 6.38791 12.4915 6.78171Z" fill="#202020"/>
<path d="M10.5453 2.31364C10.5124 3.23336 8.68762 3.9153 6.46955 3.83678C4.25149 3.75827 2.48008 2.94903 2.513 2.0293C2.54592 1.10957 4.3707 0.427637 6.58876 0.506154C8.80683 0.584671 10.5782 1.39391 10.5453 2.31364Z" fill="#D9D9D9"/>
</svg>
