<svg width="16" height="17" viewBox="0 0 16 17" fill="none" xmlns="http://www.w3.org/2000/svg">
<path fill-rule="evenodd" clip-rule="evenodd" d="M9.93442e-07 8.07666C9.93442e-07 4.76286 2.6862 2.07666 6 2.07666C9.3138 2.07666 12 4.76286 12 8.07666C12 11.3905 9.3138 14.0767 6 14.0767C5.11597 14.0772 4.24276 13.8823 3.4428 13.5061L0.720601 14.0641C0.623405 14.0839 0.522799 14.0794 0.42779 14.0508C0.33278 14.0223 0.246332 13.9706 0.176183 13.9005C0.106034 13.8303 0.0543735 13.7439 0.0258259 13.6489C-0.00272175 13.5539 -0.00726564 13.4533 0.0126009 13.3561L0.570601 10.6339C0.194337 9.8339 -0.000507687 8.96069 9.93442e-07 8.07666ZM6 5.67666C6.15913 5.67666 6.31174 5.73987 6.42426 5.8524C6.53679 5.96492 6.6 6.11753 6.6 6.27666V7.47666H7.8C7.95913 7.47666 8.11174 7.53987 8.22426 7.6524C8.33679 7.76492 8.4 7.91753 8.4 8.07666C8.4 8.23579 8.33679 8.3884 8.22426 8.50092C8.11174 8.61345 7.95913 8.67666 7.8 8.67666H6.6V9.87666C6.6 10.0358 6.53679 10.1884 6.42426 10.3009C6.31174 10.4134 6.15913 10.4767 6 10.4767C5.84087 10.4767 5.68826 10.4134 5.57574 10.3009C5.46321 10.1884 5.4 10.0358 5.4 9.87666V8.67666H4.2C4.04087 8.67666 3.88826 8.61345 3.77574 8.50092C3.66321 8.3884 3.6 8.23579 3.6 8.07666C3.6 7.91753 3.66321 7.76492 3.77574 7.6524C3.88826 7.53987 4.04087 7.47666 4.2 7.47666H5.4V6.27666C5.4 6.11753 5.46321 5.96492 5.57574 5.8524C5.68826 5.73987 5.84087 5.67666 6 5.67666Z" fill="white"/>
</svg>
