<svg width="9" height="10" viewBox="0 0 9 10" fill="none" xmlns="http://www.w3.org/2000/svg">
<path d="M5.30362 6.06252C5.31493 6.08518 5.32152 6.10988 5.32302 6.13515C5.32452 6.16042 5.32088 6.18574 5.31233 6.20956C5.30378 6.23339 5.29049 6.25524 5.27327 6.2738C5.25605 6.29235 5.23525 6.30723 5.21212 6.31752L1.68637 7.8899C1.12575 8.14002 0.543748 7.58465 0.821623 7.06415L2.00362 4.85015C2.0955 4.67802 2.0955 4.47515 2.00362 4.3034L0.821623 2.0894C0.544123 1.5689 1.12537 1.01315 1.68637 1.26365L3.00825 1.85315C3.16677 1.92387 3.29586 2.04739 3.3735 2.20265L5.30362 6.06252Z" fill="#202020"/>
<path d="M5.82497 5.84802C5.84657 5.89122 5.88402 5.92443 5.9295 5.9407C5.97498 5.95698 6.02499 5.95508 6.0691 5.93539L7.87772 5.12914C8.37385 4.90789 8.37385 4.24602 7.87772 4.02477L4.54097 2.53677C4.50569 2.52103 4.4664 2.51658 4.42848 2.52402C4.39057 2.53146 4.35588 2.55044 4.32916 2.57834C4.30244 2.60625 4.285 2.64174 4.27921 2.67994C4.27343 2.71814 4.27959 2.7572 4.29685 2.79177L5.82497 5.84802Z" fill="#858585"/>
</svg>
