<svg width="20" height="20" viewBox="0 0 20 20" fill="none" xmlns="http://www.w3.org/2000/svg">
<path d="M0 0.714133C0 0.524733 0.0752405 0.34309 0.209169 0.209164C0.343098 0.0752386 0.524744 0 0.714148 0H1.33974C2.37811 0 2.97514 0.675569 3.32079 1.34971C3.55646 1.81104 3.72642 2.37378 3.86782 2.86224H18.5721C18.7928 2.86231 19.0105 2.91352 19.2081 3.01185C19.4057 3.11017 19.5778 3.25295 19.7109 3.42897C19.844 3.60499 19.9345 3.80947 19.9754 4.02635C20.0162 4.24323 20.0062 4.46663 19.9461 4.679L17.8094 12.2131C17.6395 12.8108 17.2792 13.3369 16.7833 13.7114C16.2874 14.0859 15.6828 14.2884 15.0614 14.2884H7.80707C7.18044 14.2886 6.57112 14.0827 6.073 13.7026C5.57487 13.3224 5.21557 12.789 5.05045 12.1845L4.13349 8.82097L4.1192 8.77526L2.64806 3.77919L2.50523 3.29786C2.3624 2.80368 2.23671 2.36664 2.04818 1.99957C1.82108 1.55681 1.61255 1.42827 1.33974 1.42827H0.714148C0.524744 1.42827 0.343098 1.35303 0.209169 1.2191C0.0752405 1.08517 0 0.903532 0 0.714133ZM5.49608 8.38963L6.42876 11.8118C6.51145 12.1139 6.69116 12.3804 6.94021 12.5703C7.18926 12.7603 7.49384 12.8631 7.80707 12.863H15.0628C15.3734 12.8626 15.6754 12.7611 15.9231 12.5737C16.1708 12.3864 16.3506 12.1234 16.4354 11.8246L16.5 13H6.5L5.49608 8.38963ZM10.0024 17.8576C10.0024 18.4258 9.77663 18.9707 9.37485 19.3725C8.97306 19.7743 8.42812 20 7.85991 20C7.2917 20 6.74676 19.7743 6.34497 19.3725C5.94319 18.9707 5.71747 18.4258 5.71747 17.8576C5.71747 17.2894 5.94319 16.7445 6.34497 16.3427C6.74676 15.9409 7.2917 15.7152 7.85991 15.7152C8.42812 15.7152 8.97306 15.9409 9.37485 16.3427C9.77663 16.7445 10.0024 17.2894 10.0024 17.8576ZM8.57406 17.8576C8.57406 17.6682 8.49882 17.4866 8.36489 17.3526C8.23096 17.2187 8.04932 17.1435 7.85991 17.1435C7.67051 17.1435 7.48886 17.2187 7.35493 17.3526C7.221 17.4866 7.14576 17.6682 7.14576 17.8576C7.14576 18.047 7.221 18.2286 7.35493 18.3626C7.48886 18.4965 7.67051 18.5717 7.85991 18.5717C8.04932 18.5717 8.23096 18.4965 8.36489 18.3626C8.49882 18.2286 8.57406 18.047 8.57406 17.8576ZM17.1438 17.8576C17.1438 18.4258 16.9181 18.9707 16.5163 19.3725C16.1145 19.7743 15.5696 20 15.0014 20C14.4332 20 13.8882 19.7743 13.4865 19.3725C13.0847 18.9707 12.8589 18.4258 12.8589 17.8576C12.8589 17.2894 13.0847 16.7445 13.4865 16.3427C13.8882 15.9409 14.4332 15.7152 15.0014 15.7152C15.5696 15.7152 16.1145 15.9409 16.5163 16.3427C16.9181 16.7445 17.1438 17.2894 17.1438 17.8576ZM15.7155 17.8576C15.7155 17.6682 15.6403 17.4866 15.5064 17.3526C15.3724 17.2187 15.1908 17.1435 15.0014 17.1435C14.812 17.1435 14.6303 17.2187 14.4964 17.3526C14.3625 17.4866 14.2872 17.6682 14.2872 17.8576C14.2872 18.047 14.3625 18.2286 14.4964 18.3626C14.6303 18.4965 14.812 18.5717 15.0014 18.5717C15.1908 18.5717 15.3724 18.4965 15.5064 18.3626C15.6403 18.2286 15.7155 18.047 15.7155 17.8576Z" fill="#202020"/>
<path d="M0 0.714133C0 0.524733 0.0752405 0.34309 0.209169 0.209164C0.343098 0.0752386 0.524744 0 0.714148 0H1.33974C2.37811 0 2.97514 0.675569 3.32079 1.34971C3.55646 1.81104 3.72642 2.37378 3.86782 2.86224H18.5721C18.7928 2.86231 19.0105 2.91352 19.2081 3.01185C19.4057 3.11017 19.5778 3.25295 19.7109 3.42897C19.844 3.60499 19.9345 3.80947 19.9754 4.02635C20.0162 4.24323 20.0062 4.46663 19.9461 4.679L17.8094 12.2131C17.6395 12.8108 17.2792 13.3369 16.7833 13.7114C16.2874 14.0859 15.6828 14.2884 15.0614 14.2884H7.80707C7.18044 14.2886 6.57112 14.0827 6.073 13.7026C5.57487 13.3224 5.21557 12.789 5.05045 12.1845L4.13349 8.82097L4.1192 8.77526L2.64806 3.77919L2.50523 3.29786C2.3624 2.80368 2.23671 2.36664 2.04818 1.99957C1.82108 1.55681 1.61255 1.42827 1.33974 1.42827H0.714148C0.524744 1.42827 0.343098 1.35303 0.209169 1.2191C0.0752405 1.08517 0 0.903532 0 0.714133ZM5.49608 8.38963L6.42876 11.8118C6.51145 12.1139 6.69116 12.3804 6.94021 12.5703C7.18926 12.7603 7.49384 12.8631 7.80707 12.863H15.0628C15.3734 12.8626 15.6754 12.7611 15.9231 12.5737C16.1708 12.3864 16.3506 12.1234 16.4354 11.8246L16.5 13H6.5L5.49608 8.38963ZM10.0024 17.8576C10.0024 18.4258 9.77663 18.9707 9.37485 19.3725C8.97306 19.7743 8.42812 20 7.85991 20C7.2917 20 6.74676 19.7743 6.34497 19.3725C5.94319 18.9707 5.71747 18.4258 5.71747 17.8576C5.71747 17.2894 5.94319 16.7445 6.34497 16.3427C6.74676 15.9409 7.2917 15.7152 7.85991 15.7152C8.42812 15.7152 8.97306 15.9409 9.37485 16.3427C9.77663 16.7445 10.0024 17.2894 10.0024 17.8576ZM8.57406 17.8576C8.57406 17.6682 8.49882 17.4866 8.36489 17.3526C8.23096 17.2187 8.04932 17.1435 7.85991 17.1435C7.67051 17.1435 7.48886 17.2187 7.35493 17.3526C7.221 17.4866 7.14576 17.6682 7.14576 17.8576C7.14576 18.047 7.221 18.2286 7.35493 18.3626C7.48886 18.4965 7.67051 18.5717 7.85991 18.5717C8.04932 18.5717 8.23096 18.4965 8.36489 18.3626C8.49882 18.2286 8.57406 18.047 8.57406 17.8576ZM17.1438 17.8576C17.1438 18.4258 16.9181 18.9707 16.5163 19.3725C16.1145 19.7743 15.5696 20 15.0014 20C14.4332 20 13.8882 19.7743 13.4865 19.3725C13.0847 18.9707 12.8589 18.4258 12.8589 17.8576C12.8589 17.2894 13.0847 16.7445 13.4865 16.3427C13.8882 15.9409 14.4332 15.7152 15.0014 15.7152C15.5696 15.7152 16.1145 15.9409 16.5163 16.3427C16.9181 16.7445 17.1438 17.2894 17.1438 17.8576ZM15.7155 17.8576C15.7155 17.6682 15.6403 17.4866 15.5064 17.3526C15.3724 17.2187 15.1908 17.1435 15.0014 17.1435C14.812 17.1435 14.6303 17.2187 14.4964 17.3526C14.3625 17.4866 14.2872 17.6682 14.2872 17.8576C14.2872 18.047 14.3625 18.2286 14.4964 18.3626C14.6303 18.4965 14.812 18.5717 15.0014 18.5717C15.1908 18.5717 15.3724 18.4965 15.5064 18.3626C15.6403 18.2286 15.7155 18.047 15.7155 17.8576Z" fill="#202020"/>
</svg>
