<svg width="12" height="18" viewBox="0 0 12 18" fill="none" xmlns="http://www.w3.org/2000/svg">
<path d="M6.3523 17.5C5.25017 17.4999 4.17348 17.1428 3.26184 16.475C2.35019 15.8072 1.64565 14.8596 1.23954 13.7549C0.833437 12.6502 0.744507 11.4394 0.984284 10.2796C1.22406 9.11977 1.78148 8.06435 2.58428 7.25019C3.56845 6.25153 5.98562 4.45349 5.61894 0.5C10.0191 3.66279 12.2192 6.82558 7.81903 11.5698C8.5524 11.5698 9.65245 11.5698 11.4859 9.61674C11.6839 10.228 11.8525 10.885 11.8525 11.5698C11.8525 13.1426 11.2731 14.6509 10.2416 15.7631C9.21006 16.8752 7.81106 17.5 6.3523 17.5Z" fill="#202020"/>
<path d="M6.49989 15C5.99892 15 5.50952 14.8529 5.09514 14.578C4.68075 14.303 4.3605 13.9128 4.17591 13.4579C3.99132 13.003 3.95089 12.5045 4.05988 12.0269C4.16887 11.5493 4.42225 11.1147 4.78715 10.7795C5.23451 10.3683 6.33322 9.62791 6.16655 8C8.16663 9.30233 9.16667 10.6047 7.16659 12.5581C7.49994 12.5581 7.99996 12.5581 8.83333 11.754C8.92333 12.0056 9 12.2762 9 12.5581C9 13.2058 8.7366 13.8269 8.26774 14.2848C7.79887 14.7427 7.16296 15 6.49989 15Z" fill="#9EFF00"/>
</svg>
