<svg width="627" height="627" viewBox="0 0 627 627" fill="none" xmlns="http://www.w3.org/2000/svg">
<g clip-path="url(#clip0_3587_5337)">
<path d="M322.75 330.019L303.442 326.801C281.872 323.207 260.186 332.512 247.927 350.62C224.134 385.769 246.623 433.573 288.871 437.652L324.596 441.102C342.698 442.85 360.836 438.156 375.817 427.847L465.815 365.915C483.957 353.43 508.784 358.016 521.268 376.158C539.289 402.346 579.209 397.949 591.098 368.467L606.716 329.738C614.534 310.349 612.109 288.332 600.258 271.11L564.069 218.522C537.934 180.544 485.96 170.943 447.982 197.077L445.287 198.932C425.616 212.469 413.356 234.382 412.113 258.228C409.724 304.035 367.994 337.559 322.75 330.019Z" fill="#9EFF00"/>
<path d="M300.449 295.023L319.442 299.757C340.66 305.045 363.014 297.484 376.666 280.401C403.163 247.243 384.523 197.811 342.73 190.405L307.389 184.141C289.482 180.968 271.03 184.213 255.281 193.306L160.669 247.93C141.597 258.942 117.21 252.407 106.199 233.335C90.3044 205.805 50.1624 207.033 35.9799 235.483L17.3493 272.855C8.02233 291.565 8.69944 313.706 19.1524 331.811L51.0708 387.095C74.1217 427.02 125.174 440.7 165.099 417.649L167.933 416.013C188.612 404.074 202.566 383.198 205.69 359.525C211.693 314.051 255.942 283.93 300.449 295.023Z" fill="white"/>
</g>
<defs>
<clipPath id="clip0_3587_5337">
<rect width="627" height="627" fill="white"/>
</clipPath>
</defs>
</svg>
