<svg width="20" height="20" viewBox="0 0 20 20" fill="none" xmlns="http://www.w3.org/2000/svg">
<g clip-path="url(#clip0_1096_2505)">
<path d="M8 4C6.93913 4 5.92172 4.42143 5.17157 5.17157C4.42143 5.92172 4 6.93913 4 8C4 9.06087 4.42143 10.0783 5.17157 10.8284C5.92172 11.5786 6.93913 12 8 12C9.06087 12 10.0783 11.5786 10.8284 10.8284C11.5786 10.0783 12 9.06087 12 8C12 6.93913 11.5786 5.92172 10.8284 5.17157C10.0783 4.42143 9.06087 4 8 4Z" fill="#202020"/>
<path d="M15.5039 14.5127C15.7659 14.5104 16.0185 14.6111 16.207 14.793L19.707 18.293C19.8944 18.4804 19.9999 18.735 20 19C20 19.2652 19.8945 19.5195 19.707 19.707C19.5195 19.8945 19.2652 20 19 20C18.735 19.9999 18.4804 19.8944 18.293 19.707L14.793 16.207C14.6111 16.0185 14.5104 15.7659 14.5127 15.5039C14.515 15.2417 14.6203 14.991 14.8057 14.8057C14.991 14.6203 15.2417 14.515 15.5039 14.5127ZM8.00098 0C10.1227 0 12.1579 0.842483 13.6582 2.34277C15.1585 3.84306 16.001 5.87827 16.001 8C16.001 10.1217 15.1585 12.1569 13.6582 13.6572C12.1579 15.1575 10.1227 16 8.00098 16C5.87924 16 3.84404 15.1575 2.34375 13.6572C0.843459 12.1569 0.000976563 10.1217 0.000976562 8C0.000976563 5.87827 0.843459 3.84306 2.34375 2.34277C3.84404 0.842482 5.87924 0 8.00098 0ZM8 2C6.4087 2 4.88303 2.63259 3.75781 3.75781C2.63259 4.88303 2 6.4087 2 8C2 9.5913 2.63259 11.117 3.75781 12.2422C4.88303 13.3674 6.4087 14 8 14C9.5913 14 11.117 13.3674 12.2422 12.2422C13.3674 11.117 14 9.5913 14 8C14 6.4087 13.3674 4.88303 12.2422 3.75781C11.117 2.63259 9.5913 2 8 2Z" fill="white"/>
<path d="M15.5039 14.5127C15.7659 14.5104 16.0185 14.6111 16.207 14.793L19.707 18.293C19.8944 18.4804 19.9999 18.735 20 19C20 19.2652 19.8945 19.5195 19.707 19.707C19.5195 19.8945 19.2652 20 19 20C18.735 19.9999 18.4804 19.8944 18.293 19.707L14.793 16.207C14.6111 16.0185 14.5104 15.7659 14.5127 15.5039C14.515 15.2417 14.6203 14.991 14.8057 14.8057C14.991 14.6203 15.2417 14.515 15.5039 14.5127ZM8.00098 0C10.1227 0 12.1579 0.842483 13.6582 2.34277C15.1585 3.84306 16.001 5.87827 16.001 8C16.001 10.1217 15.1585 12.1569 13.6582 13.6572C12.1579 15.1575 10.1227 16 8.00098 16C5.87924 16 3.84404 15.1575 2.34375 13.6572C0.843459 12.1569 0.000976563 10.1217 0.000976562 8C0.000976563 5.87827 0.843459 3.84306 2.34375 2.34277C3.84404 0.842482 5.87924 0 8.00098 0ZM8 2C6.4087 2 4.88303 2.63259 3.75781 3.75781C2.63259 4.88303 2 6.4087 2 8C2 9.5913 2.63259 11.117 3.75781 12.2422C4.88303 13.3674 6.4087 14 8 14C9.5913 14 11.117 13.3674 12.2422 12.2422C13.3674 11.117 14 9.5913 14 8C14 6.4087 13.3674 4.88303 12.2422 3.75781C11.117 2.63259 9.5913 2 8 2Z" fill="#202020"/>
</g>
<defs>
<clipPath id="clip0_1096_2505">
<rect width="19.999" height="20" fill="white" transform="translate(0.000976562)"/>
</clipPath>
</defs>
</svg>
