<svg width="28" height="28" viewBox="0 0 28 28" fill="none" xmlns="http://www.w3.org/2000/svg">
<g filter="url(#filter0_d_1096_2531)">
<path d="M4 0.714133C4 0.524733 4.07524 0.34309 4.20917 0.209164C4.3431 0.0752386 4.52474 0 4.71415 0H5.33974C6.37811 0 6.97514 0.675569 7.32079 1.34971C7.55646 1.81104 7.72642 2.37378 7.86782 2.86224H22.5721C22.7928 2.86231 23.0105 2.91352 23.2081 3.01185C23.4057 3.11017 23.5778 3.25295 23.7109 3.42897C23.844 3.60499 23.9345 3.80947 23.9754 4.02635C24.0162 4.24323 24.0062 4.46663 23.9461 4.679L21.8094 12.2131C21.6395 12.8108 21.2792 13.3369 20.7833 13.7114C20.2874 14.0859 19.6828 14.2884 19.0614 14.2884H11.8071C11.1804 14.2886 10.5711 14.0827 10.073 13.7026C9.57487 13.3224 9.21557 12.789 9.05045 12.1845L8.13349 8.82097L8.1192 8.77526L6.64806 3.77919L6.50523 3.29786C6.3624 2.80368 6.23671 2.36664 6.04818 1.99957C5.82108 1.55681 5.61255 1.42827 5.33974 1.42827H4.71415C4.52474 1.42827 4.3431 1.35303 4.20917 1.2191C4.07524 1.08517 4 0.903532 4 0.714133ZM9.49608 8.38963L10.4288 11.8118C10.5114 12.1139 10.6912 12.3804 10.9402 12.5703C11.1893 12.7603 11.4938 12.8631 11.8071 12.863H19.0628C19.3734 12.8626 19.6754 12.7611 19.9231 12.5737C20.1708 12.3864 20.3506 12.1234 20.4354 11.8246L20.5 13H10.5L9.49608 8.38963ZM14.0024 17.8576C14.0024 18.4258 13.7766 18.9707 13.3748 19.3725C12.9731 19.7743 12.4281 20 11.8599 20C11.2917 20 10.7468 19.7743 10.345 19.3725C9.94319 18.9707 9.71747 18.4258 9.71747 17.8576C9.71747 17.2894 9.94319 16.7445 10.345 16.3427C10.7468 15.9409 11.2917 15.7152 11.8599 15.7152C12.4281 15.7152 12.9731 15.9409 13.3748 16.3427C13.7766 16.7445 14.0024 17.2894 14.0024 17.8576ZM12.5741 17.8576C12.5741 17.6682 12.4988 17.4866 12.3649 17.3526C12.231 17.2187 12.0493 17.1435 11.8599 17.1435C11.6705 17.1435 11.4889 17.2187 11.3549 17.3526C11.221 17.4866 11.1458 17.6682 11.1458 17.8576C11.1458 18.047 11.221 18.2286 11.3549 18.3626C11.4889 18.4965 11.6705 18.5717 11.8599 18.5717C12.0493 18.5717 12.231 18.4965 12.3649 18.3626C12.4988 18.2286 12.5741 18.047 12.5741 17.8576ZM21.1438 17.8576C21.1438 18.4258 20.9181 18.9707 20.5163 19.3725C20.1145 19.7743 19.5696 20 19.0014 20C18.4332 20 17.8882 19.7743 17.4865 19.3725C17.0847 18.9707 16.8589 18.4258 16.8589 17.8576C16.8589 17.2894 17.0847 16.7445 17.4865 16.3427C17.8882 15.9409 18.4332 15.7152 19.0014 15.7152C19.5696 15.7152 20.1145 15.9409 20.5163 16.3427C20.9181 16.7445 21.1438 17.2894 21.1438 17.8576ZM19.7155 17.8576C19.7155 17.6682 19.6403 17.4866 19.5064 17.3526C19.3724 17.2187 19.1908 17.1435 19.0014 17.1435C18.812 17.1435 18.6303 17.2187 18.4964 17.3526C18.3625 17.4866 18.2872 17.6682 18.2872 17.8576C18.2872 18.047 18.3625 18.2286 18.4964 18.3626C18.6303 18.4965 18.812 18.5717 19.0014 18.5717C19.1908 18.5717 19.3724 18.4965 19.5064 18.3626C19.6403 18.2286 19.7155 18.047 19.7155 17.8576Z" fill="#202020"/>
<path d="M4 0.714133C4 0.524733 4.07524 0.34309 4.20917 0.209164C4.3431 0.0752386 4.52474 0 4.71415 0H5.33974C6.37811 0 6.97514 0.675569 7.32079 1.34971C7.55646 1.81104 7.72642 2.37378 7.86782 2.86224H22.5721C22.7928 2.86231 23.0105 2.91352 23.2081 3.01185C23.4057 3.11017 23.5778 3.25295 23.7109 3.42897C23.844 3.60499 23.9345 3.80947 23.9754 4.02635C24.0162 4.24323 24.0062 4.46663 23.9461 4.679L21.8094 12.2131C21.6395 12.8108 21.2792 13.3369 20.7833 13.7114C20.2874 14.0859 19.6828 14.2884 19.0614 14.2884H11.8071C11.1804 14.2886 10.5711 14.0827 10.073 13.7026C9.57487 13.3224 9.21557 12.789 9.05045 12.1845L8.13349 8.82097L8.1192 8.77526L6.64806 3.77919L6.50523 3.29786C6.3624 2.80368 6.23671 2.36664 6.04818 1.99957C5.82108 1.55681 5.61255 1.42827 5.33974 1.42827H4.71415C4.52474 1.42827 4.3431 1.35303 4.20917 1.2191C4.07524 1.08517 4 0.903532 4 0.714133ZM9.49608 8.38963L10.4288 11.8118C10.5114 12.1139 10.6912 12.3804 10.9402 12.5703C11.1893 12.7603 11.4938 12.8631 11.8071 12.863H19.0628C19.3734 12.8626 19.6754 12.7611 19.9231 12.5737C20.1708 12.3864 20.3506 12.1234 20.4354 11.8246L20.5 13H10.5L9.49608 8.38963ZM14.0024 17.8576C14.0024 18.4258 13.7766 18.9707 13.3748 19.3725C12.9731 19.7743 12.4281 20 11.8599 20C11.2917 20 10.7468 19.7743 10.345 19.3725C9.94319 18.9707 9.71747 18.4258 9.71747 17.8576C9.71747 17.2894 9.94319 16.7445 10.345 16.3427C10.7468 15.9409 11.2917 15.7152 11.8599 15.7152C12.4281 15.7152 12.9731 15.9409 13.3748 16.3427C13.7766 16.7445 14.0024 17.2894 14.0024 17.8576ZM12.5741 17.8576C12.5741 17.6682 12.4988 17.4866 12.3649 17.3526C12.231 17.2187 12.0493 17.1435 11.8599 17.1435C11.6705 17.1435 11.4889 17.2187 11.3549 17.3526C11.221 17.4866 11.1458 17.6682 11.1458 17.8576C11.1458 18.047 11.221 18.2286 11.3549 18.3626C11.4889 18.4965 11.6705 18.5717 11.8599 18.5717C12.0493 18.5717 12.231 18.4965 12.3649 18.3626C12.4988 18.2286 12.5741 18.047 12.5741 17.8576ZM21.1438 17.8576C21.1438 18.4258 20.9181 18.9707 20.5163 19.3725C20.1145 19.7743 19.5696 20 19.0014 20C18.4332 20 17.8882 19.7743 17.4865 19.3725C17.0847 18.9707 16.8589 18.4258 16.8589 17.8576C16.8589 17.2894 17.0847 16.7445 17.4865 16.3427C17.8882 15.9409 18.4332 15.7152 19.0014 15.7152C19.5696 15.7152 20.1145 15.9409 20.5163 16.3427C20.9181 16.7445 21.1438 17.2894 21.1438 17.8576ZM19.7155 17.8576C19.7155 17.6682 19.6403 17.4866 19.5064 17.3526C19.3724 17.2187 19.1908 17.1435 19.0014 17.1435C18.812 17.1435 18.6303 17.2187 18.4964 17.3526C18.3625 17.4866 18.2872 17.6682 18.2872 17.8576C18.2872 18.047 18.3625 18.2286 18.4964 18.3626C18.6303 18.4965 18.812 18.5717 19.0014 18.5717C19.1908 18.5717 19.3724 18.4965 19.5064 18.3626C19.6403 18.2286 19.7155 18.047 19.7155 17.8576Z" fill="#202020"/>
</g>
<defs>
<filter id="filter0_d_1096_2531" x="0" y="0" width="28" height="28" filterUnits="userSpaceOnUse" color-interpolation-filters="sRGB">
<feFlood flood-opacity="0" result="BackgroundImageFix"/>
<feColorMatrix in="SourceAlpha" type="matrix" values="0 0 0 0 0 0 0 0 0 0 0 0 0 0 0 0 0 0 127 0" result="hardAlpha"/>
<feOffset dy="4"/>
<feGaussianBlur stdDeviation="2"/>
<feComposite in2="hardAlpha" operator="out"/>
<feColorMatrix type="matrix" values="0 0 0 0 0 0 0 0 0 0 0 0 0 0 0 0 0 0 0.25 0"/>
<feBlend mode="normal" in2="BackgroundImageFix" result="effect1_dropShadow_1096_2531"/>
<feBlend mode="normal" in="SourceGraphic" in2="effect1_dropShadow_1096_2531" result="shape"/>
</filter>
</defs>
</svg>
