<svg width="130" height="36" viewBox="0 0 130 36" fill="none" xmlns="http://www.w3.org/2000/svg">
<path d="M66.5251 20.1293L63.8931 19.6907C60.9526 19.2007 57.9963 20.4691 56.3252 22.9377C53.0816 27.7293 56.1473 34.246 61.9067 34.8022L66.7768 35.2725C69.2445 35.5108 71.7171 34.8709 73.7594 33.4655L86.028 25.0227C88.5011 23.3208 91.8856 23.946 93.5874 26.4191C96.0441 29.9891 101.486 29.3897 103.107 25.3706L105.236 20.091C106.302 17.4479 105.971 14.4464 104.355 12.0986L99.4221 4.92954C95.8593 -0.247728 88.7742 -1.55653 83.597 2.00625L83.2296 2.2591C80.548 4.10448 78.8767 7.09173 78.7072 10.3425C78.3816 16.587 72.6929 21.1571 66.5251 20.1293Z" fill="#9EFF00"/>
<path d="M66.5251 20.1293L63.8931 19.6907C60.9526 19.2007 57.9963 20.4691 56.3252 22.9377C53.0816 27.7293 56.1473 34.246 61.9067 34.8022L66.7768 35.2725C69.2445 35.5108 71.7171 34.8709 73.7594 33.4655L86.028 25.0227C88.5011 23.3208 91.8856 23.946 93.5874 26.4191C96.0441 29.9891 101.486 29.3897 103.107 25.3706L105.236 20.091C106.302 17.4479 105.971 14.4464 104.355 12.0986L99.4221 4.92954C95.8593 -0.247728 88.7742 -1.55653 83.597 2.00625L83.2296 2.2591C80.548 4.10448 78.8767 7.09173 78.7072 10.3425C78.3816 16.587 72.6929 21.1571 66.5251 20.1293Z" fill="#202020"/>
<path d="M63.4848 15.3586L66.0739 16.0039C68.9664 16.7248 72.0138 15.694 73.8748 13.3652C77.487 8.845 74.946 2.10636 69.2486 1.09664L64.4309 0.242826C61.9898 -0.189797 59.4744 0.252629 57.3274 1.49222L44.4298 8.93873C41.8299 10.4398 38.5054 9.54902 37.0044 6.94909C34.8376 3.1961 29.3653 3.36349 27.432 7.24189L24.8922 12.3366C23.6208 14.8872 23.7131 17.9054 25.138 20.3735L29.4893 27.9102C32.6316 33.3529 39.591 35.2177 45.0337 32.0753L45.42 31.8523C48.239 30.2247 50.1412 27.3789 50.5672 24.1517C51.3854 17.9525 57.4175 13.8464 63.4848 15.3586Z" fill="#202020"/>
<path d="M84.0664 2.68848C88.8668 -0.614964 95.4359 0.599002 98.7393 5.39941L103.673 12.5684C105.131 14.6872 105.43 17.3959 104.468 19.7812L102.339 25.0605C100.965 28.4672 96.3518 28.9752 94.2695 25.9492C92.3082 23.0995 88.4084 22.3797 85.5586 24.3408L73.29 32.7832C71.4084 34.0781 69.13 34.6678 66.8564 34.4482L61.9863 33.9775C56.8528 33.4818 54.1199 27.6734 57.0107 23.4023C58.5003 21.2019 61.1358 20.0711 63.7568 20.5078L66.3887 20.9463C73.0442 22.0554 79.1828 17.124 79.5342 10.3857C79.6903 7.39198 81.2297 4.64086 83.6992 2.94141L84.0664 2.68848ZM57.7412 2.20996C59.7193 1.0679 62.0371 0.660061 64.2861 1.05859L69.1045 1.91211C74.1826 2.81234 76.447 8.81855 73.2275 12.8477C71.5687 14.9234 68.8527 15.8427 66.2744 15.2002L63.6855 14.5547C57.1386 12.9229 50.6292 17.3538 49.7461 24.043C49.3538 27.015 47.6019 29.6358 45.0059 31.1348L44.6191 31.3584C39.5728 34.2716 33.1206 32.5423 30.207 27.4961L25.8555 19.959C24.5696 17.7316 24.4863 15.0078 25.6338 12.7061L28.1729 7.61133C29.8116 4.3239 34.4505 4.18219 36.2871 7.36328C38.0169 10.3593 41.8477 11.3859 44.8438 9.65625L57.7412 2.20996Z" stroke="#202020" stroke-width="1.65663" stroke-linecap="round" stroke-linejoin="round"/>
<path d="M84.1592 2.83008C88.8813 -0.419284 95.3431 0.774208 98.5928 5.49609L103.526 12.665C104.952 14.7364 105.243 17.3848 104.303 19.7168L102.174 24.9961C100.851 28.2757 96.4111 28.7654 94.4062 25.8525C92.3913 22.9244 88.3841 22.1842 85.4561 24.1992L73.1875 32.6416C71.3392 33.9135 69.1014 34.4929 66.8682 34.2773L61.998 33.8066C56.994 33.3234 54.3302 27.6613 57.1484 23.498C58.6004 21.3534 61.1689 20.251 63.7236 20.6768L66.3555 21.1152C73.1121 22.2412 79.3445 17.2351 79.7012 10.3945C79.8545 7.45421 81.3656 4.75221 83.791 3.08301L84.1592 2.83008Z" fill="#9EFF00" stroke="#202020" stroke-width="2" stroke-linecap="round" stroke-linejoin="round"/>
</svg>
